<svg width="24" height="28" viewBox="0 0 24 28" fill="none" xmlns="http://www.w3.org/2000/svg">
<path fill-rule="evenodd" clip-rule="evenodd" d="M8.7849 24.2193L11.1863 27.5812C11.5851 28.1396 12.4149 28.1396 12.8137 27.5812C14.333 25.4542 15.4363 23.9283 16.1209 23.0068C20.804 21.3154 24 16.8932 24 11.8625C24 5.30819 18.6246 0 12 0C5.37538 0 0 5.30819 0 11.8625C0 14.9497 1.19932 17.8526 3.30959 20.0428C4.16795 20.9337 5.21779 21.7779 6.45794 22.5778L8.7849 24.2193ZM10.3137 22.9188C10.2484 22.8273 10.1681 22.7475 10.0762 22.6827L7.5762 20.9202C6.42588 20.1772 5.49552 19.429 4.74982 18.6551C2.9946 16.8334 2 14.426 2 11.8625C2 6.41843 6.47436 2 12 2C17.5256 2 22 6.41843 22 11.8625C22 16.1291 19.227 19.8745 15.1885 21.2133C14.9949 21.2775 14.8256 21.3994 14.7032 21.5625C14.144 22.3081 13.2438 23.5466 12.0007 25.2805L10.3137 22.9188ZM12 16.5625C14.7586 16.5625 17 14.3491 17 11.6125C17 8.87585 14.7586 6.6625 12 6.6625C9.24137 6.6625 7 8.87585 7 11.6125C7 14.3491 9.24137 16.5625 12 16.5625ZM12 14.5625C10.3403 14.5625 9 13.2389 9 11.6125C9 9.9861 10.3403 8.6625 12 8.6625C13.6597 8.6625 15 9.9861 15 11.6125C15 13.2389 13.6597 14.5625 12 14.5625Z" fill="#315581"/>
</svg>
