<svg width="14" height="15" viewBox="0 0 14 15" fill="none" xmlns="http://www.w3.org/2000/svg">
<path id="icons/entities/POI" fill-rule="evenodd" clip-rule="evenodd" d="M7.5 12C10.8137 12 13.5 9.31371 13.5 6C13.5 2.68629 10.8137 0 7.5 0C4.18629 0 1.5 2.68629 1.5 6C1.5 7.47627 2.03316 8.82801 2.91742 9.87318L0.292893 12.4977C-0.0976311 12.8882 -0.0976311 13.5214 0.292893 13.9119C0.683418 14.3024 1.31658 14.3024 1.70711 13.9119L4.4506 11.1684C5.3442 11.6968 6.38669 12 7.5 12ZM5.23238 9.29558C5.87684 9.73987 6.65804 10 7.5 10C9.70914 10 11.5 8.20914 11.5 6C11.5 3.79086 9.70914 2 7.5 2C5.29086 2 3.5 3.79086 3.5 6C3.5 7.13319 3.97122 8.15632 4.72839 8.88413C4.86008 8.93261 4.98361 9.00972 5.08935 9.11546C5.14494 9.17105 5.19262 9.23156 5.23238 9.29558Z" fill="#315581"/>
</svg>
