<svg width="17" height="18" viewBox="0 0 17 18" fill="none" xmlns="http://www.w3.org/2000/svg">
<path id="icons/entities/electrical pole/Segment" fill-rule="evenodd" clip-rule="evenodd" d="M13.8492 2.63604H11.0208C10.7556 2.63604 10.5012 2.7414 10.3137 2.92894L2.41421 10.8284C2.22668 11.016 2.12132 11.2703 2.12132 11.5355L2.12132 14.364C2.12132 14.9163 2.56904 15.364 3.12132 15.364L5.94975 15.364C6.21496 15.364 6.46932 15.2586 6.65685 15.0711L14.5563 7.17158C14.7439 6.98404 14.8492 6.72969 14.8492 6.46447L14.8492 3.63604C14.8492 3.08376 14.4015 2.63604 13.8492 2.63604ZM4.12132 13.364V11.9498L11.435 4.63604H12.8492V6.05026L5.53553 13.364H4.12132Z" fill="#315581"/>
</svg>
