<svg width="35" height="30" viewBox="0 0 35 30" fill="none" xmlns="http://www.w3.org/2000/svg">
<g id="sync">
<path id="Path" d="M29.546 10.0686C29.2509 5.02864 25.0962 1 20.087 1C17.0462 1 14.1018 2.49128 12.2773 4.92448C12.2353 4.90264 12.1905 4.88752 12.1479 4.8668C12.0382 4.8136 11.9273 4.7632 11.8136 4.71784C11.7475 4.69152 11.6803 4.668 11.6131 4.64448C11.5028 4.60584 11.3908 4.57168 11.2771 4.54088C11.2099 4.52296 11.1433 4.50448 11.0755 4.4888C10.9523 4.4608 10.8269 4.43952 10.7003 4.42104C10.6415 4.41208 10.5833 4.40088 10.5239 4.39416C10.3386 4.37288 10.151 4.36 9.96 4.36C7.18128 4.36 4.92 6.62072 4.92 9.4C4.92 9.47224 4.92448 9.5428 4.92896 9.61336C2.59992 10.8829 1 13.5434 1 16.2062C1 20.1727 4.22672 23.4 8.1932 23.4H9.08C9.38912 23.4 9.64 23.1497 9.64 22.84C9.64 22.5303 9.38912 22.28 9.08 22.28H8.1932C4.8444 22.28 2.12 19.5556 2.12 16.2062C2.12 13.88 3.6348 11.4653 5.72192 10.4646L6.04 10.3128V9.96C6.04 9.89112 6.04448 9.82056 6.0484 9.75L6.05344 9.65312L6.04672 9.54C6.04336 9.49352 6.04 9.44704 6.04 9.4C6.04 7.23896 7.7984 5.48 9.96 5.48C10.133 5.48 10.3038 5.49512 10.4735 5.51752C10.5172 5.52312 10.5609 5.5304 10.6046 5.53768C10.7541 5.56232 10.9014 5.5948 11.0464 5.63624C11.066 5.64184 11.0862 5.64576 11.1058 5.65136C11.2654 5.70008 11.421 5.76224 11.5734 5.83112C11.6126 5.84904 11.6512 5.86808 11.6898 5.88712C11.8248 5.95376 11.957 6.02712 12.0846 6.11C13.1632 6.80944 13.88 8.02184 13.88 9.4C13.88 9.70968 14.1309 9.96 14.44 9.96C14.7491 9.96 15 9.70968 15 9.4C15 7.85776 14.3022 6.47736 13.208 5.55224C14.813 3.45224 17.4573 2.12 20.087 2.12C24.4237 2.12 28.0267 5.5556 28.4019 9.89672C27.8296 9.8564 26.9722 9.83568 26.1154 9.96616C25.8097 10.0126 25.5997 10.2982 25.6462 10.604C25.6882 10.8812 25.9267 11.08 26.1989 11.08C26.2269 11.08 26.2554 11.0778 26.284 11.0733C27.5294 10.8851 28.8281 11.0615 28.907 11.0722C31.5144 11.5683 33.48 13.9702 33.48 16.6643C33.48 19.7606 30.9606 22.28 27.8643 22.28H27.64C27.3309 22.28 27.08 22.5303 27.08 22.84C27.08 23.1497 27.3309 23.4 27.64 23.4H27.8643C31.5782 23.4 34.6 20.3782 34.6 16.6643C34.6 13.5905 32.4569 10.8336 29.546 10.0686Z" fill="#315581" stroke="#315581" stroke-width="0.8"/>
<path id="Path_2" d="M23.96 22.28C23.6508 22.28 23.4 22.5303 23.4 22.84C23.4 25.6193 21.1387 27.88 18.36 27.88C15.5812 27.88 13.32 25.6193 13.32 22.84C13.32 20.0607 15.5812 17.8 18.36 17.8C20.04 17.8 21.5391 18.6434 22.4541 20.04H18.92C18.6108 20.04 18.36 20.2903 18.36 20.6C18.36 20.9097 18.6108 21.16 18.92 21.16H23.4C23.4011 21.16 23.4016 21.1594 23.4028 21.1594C23.442 21.1594 23.4812 21.1443 23.5204 21.1359C23.554 21.1281 23.5904 21.1275 23.6217 21.1141C23.6228 21.1135 23.624 21.1141 23.6245 21.1135C23.6436 21.1051 23.6559 21.0894 23.6732 21.0794C23.7186 21.0536 23.764 21.0273 23.8004 20.9903C23.825 20.9646 23.8396 20.9326 23.8586 20.9035C23.8788 20.8727 23.9034 20.8453 23.9174 20.8106C23.9364 20.7635 23.9415 20.7126 23.9476 20.6622C23.9499 20.6403 23.96 20.6218 23.96 20.6V20.5938V20.5927V16.12C23.96 15.8103 23.7091 15.56 23.4 15.56C23.0908 15.56 22.84 15.8103 22.84 16.12V18.696C21.7121 17.4237 20.1161 16.68 18.36 16.68C14.9636 16.68 12.2 19.4436 12.2 22.84C12.2 26.2364 14.9636 29 18.36 29C21.7564 29 24.52 26.2364 24.52 22.84C24.52 22.5303 24.2691 22.28 23.96 22.28Z" fill="#315581" stroke="#315581" stroke-width="0.8"/>
</g>
</svg>
