<svg width="24" height="26" viewBox="0 0 24 26" fill="none" xmlns="http://www.w3.org/2000/svg">
<g id="table">
<path id="icons/tableview" fill-rule="evenodd" clip-rule="evenodd" d="M5 0H19C21.7614 0 24 2.23858 24 5V21C24 23.7614 21.7614 26 19 26H5C2.23858 26 0 23.7614 0 21V5C0 2.23858 2.23858 0 5 0ZM5 2C3.34315 2 2 3.34315 2 5V6H22V5C22 3.34315 20.6569 2 19 2H5ZM15 8H9V12H15V8ZM17 8V12H22V8H17ZM15 14H9V18H15V14ZM17 18V14H22V18H17ZM15 20H9V24H15V20ZM17 24V20H22V21C22 22.6569 20.6569 24 19 24H17ZM2 8H7V12H2V8ZM2 14H7V18H2V14ZM2 20H7V24H5C3.34315 24 2 22.6569 2 21V20Z" fill="#315581"/>
</g>
</svg>
